<?xml version="1.0" standalone="no"?>
<!DOCTYPE svg PUBLIC "-//W3C//DTD SVG 20010904//EN"
 "http://www.w3.org/TR/2001/REC-SVG-20010904/DTD/svg10.dtd">
<svg version="1.0" xmlns="http://www.w3.org/2000/svg"
 width="1600.000000pt" height="1600.000000pt" viewBox="0 0 1600.000000 1600.000000"
 preserveAspectRatio="xMidYMid meet">
<metadata>
Created by potrace 1.16, written by Peter Selinger 2001-2019
</metadata>
<g transform="translate(0.000000,1600.000000) scale(0.100000,-0.100000)"
fill="#ffda6b" stroke="none">
<path d="M7625 14660 c-786 -49 -1531 -223 -2237 -522 -175 -74 -569 -272
-733 -368 -501 -294 -923 -618 -1334 -1023 -437 -433 -783 -877 -1091 -1402
-96 -164 -294 -558 -368 -733 -566 -1336 -683 -2830 -331 -4236 546 -2181
2170 -3950 4303 -4685 1423 -491 3015 -478 4431 36 787 285 1495 706 2150
1276 125 109 437 420 554 552 735 829 1238 1776 1501 2825 320 1279 251 2651
-197 3885 -408 1124 -1098 2102 -2038 2885 -232 193 -541 410 -843 591 -183
110 -586 315 -780 397 -650 275 -1322 442 -2047 507 -202 19 -743 27 -940 15z
m875 -1695 c1413 -152 2671 -867 3522 -2000 508 -676 839 -1488 942 -2315 50
-396 50 -827 0 -1250 -48 -415 -169 -890 -329 -1295 -62 -159 -255 -550 -344
-698 -679 -1135 -1738 -1924 -3007 -2240 -835 -209 -1743 -209 -2577 0 -736
183 -1379 511 -1972 1004 -135 112 -439 418 -556 559 -619 745 -992 1601
-1123 2575 -33 243 -41 369 -41 685 0 329 8 445 46 710 116 808 442 1593 937
2256 280 377 646 745 1017 1025 772 583 1689 929 2645 998 177 13 666 5 840
-14z"/>
<path d="M10230 10678 c-404 -324 -736 -593 -738 -597 -1 -4 27 -43 64 -87
199 -238 392 -624 475 -948 125 -488 99 -1005 -76 -1515 -116 -340 -283 -651
-476 -891 -88 -109 -262 -284 -364 -366 -294 -235 -706 -441 -1147 -573 -359
-108 -497 -131 -838 -138 -272 -6 -451 3 -728 38 -90 11 -166 18 -168 16 -8
-7 268 -87 406 -117 711 -154 1413 -104 2015 145 428 178 763 402 1070 716
252 257 422 502 584 839 212 443 333 933 363 1473 l12 217 889 0 889 0 -7 68
c-63 619 -542 1405 -1316 2156 -88 86 -164 156 -167 155 -4 0 -338 -266 -742
-591z"/>
<path d="M10970 8437 c0 -680 -254 -1402 -681 -1937 -326 -408 -723 -720
-1239 -975 -497 -244 -1057 -408 -1635 -477 -170 -20 -736 -17 -892 5 -672 95
-1210 342 -1690 775 -51 46 -93 80 -93 75 0 -4 29 -47 65 -95 271 -366 738
-670 1318 -857 666 -216 1592 -282 2242 -160 563 105 1141 367 1640 742 321
242 689 605 908 897 l58 78 596 -294 c328 -162 597 -293 598 -292 22 29 96
169 129 244 117 266 195 613 226 1009 14 181 14 666 0 865 -11 162 -47 499
-57 538 l-5 22 -744 0 -744 0 0 -163z"/>
<path d="M3840 6497 c0 -23 81 -289 120 -391 320 -854 903 -1557 1664 -2005
680 -400 1544 -608 2446 -588 582 13 1092 114 1613 319 161 64 502 233 652
323 498 301 932 682 1293 1134 95 119 232 314 232 331 0 7 -790 541 -877 593
-7 5 -30 -23 -62 -76 -306 -507 -817 -978 -1376 -1268 -409 -213 -840 -343
-1345 -406 -181 -22 -858 -26 -1090 -5 -559 50 -994 144 -1410 305 -144 56
-432 201 -562 284 -487 308 -882 740 -1222 1336 -59 102 -76 128 -76 114z"/>
</g>
</svg>
