<?xml version="1.0" standalone="no"?>
<!DOCTYPE svg PUBLIC "-//W3C//DTD SVG 20010904//EN"
 "http://www.w3.org/TR/2001/REC-SVG-20010904/DTD/svg10.dtd">
<svg version="1.0" xmlns="http://www.w3.org/2000/svg"
 width="70px" height="70px" viewBox="0 0 1600.000000 1600.000000"
 preserveAspectRatio="xMidYMid meet">

<g transform="translate(0.000000,1600.000000) scale(0.100000,-0.100000)"
fill="#000000" stroke="none">
<path d="M7590 14654 c-1198 -83 -2290 -450 -3270 -1099 -1383 -915 -2385
-2331 -2785 -3935 -78 -311 -134 -640 -172 -995 -14 -137 -18 -258 -18 -620 0
-446 4 -519 41 -825 188 -1546 925 -2989 2069 -4053 1002 -932 2246 -1530
3585 -1721 384 -55 464 -60 960 -60 496 0 576 5 960 60 2145 307 4027 1667
4999 3612 371 743 590 1506 678 2362 25 247 25 998 0 1240 -76 719 -237 1362
-498 1975 -616 1451 -1727 2640 -3129 3349 -748 379 -1474 592 -2340 688 -151
16 -263 21 -605 23 -231 1 -445 1 -475 -1z m785 -1675 c1515 -105 2941 -940
3800 -2224 703 -1051 967 -2267 769 -3540 -167 -1074 -676 -2068 -1442 -2816
-834 -815 -1881 -1281 -3102 -1379 -327 -27 -838 -9 -1182 41 -1545 222 -2841
1112 -3588 2462 -302 547 -504 1175 -585 1822 -53 425 -49 945 11 1360 185
1289 904 2489 1969 3289 808 606 1774 954 2765 995 195 8 362 5 585 -10z"/>
<path d="M10853 11172 c-59 -48 -390 -314 -735 -590 l-627 -503 60 -72 c101
-119 216 -302 305 -482 126 -257 202 -509 239 -789 18 -140 21 -447 5 -591
-55 -500 -274 -1053 -579 -1460 -95 -127 -315 -347 -448 -448 -350 -266 -791
-466 -1328 -602 -395 -100 -788 -109 -1428 -30 -37 5 -34 2 28 -20 95 -34 323
-90 470 -114 259 -42 306 -46 630 -46 282 1 337 3 465 23 302 47 539 114 805
229 929 398 1558 1149 1830 2188 72 273 113 558 122 837 l6 188 891 2 890 3
-2 50 c-5 82 -50 288 -87 401 -165 492 -509 1014 -1031 1566 -136 143 -350
348 -363 348 -5 0 -58 -40 -118 -88z"/>
<path d="M10979 8508 c2 -44 -2 -153 -9 -242 -75 -1019 -582 -1890 -1435
-2465 -329 -222 -711 -405 -1130 -541 -914 -295 -1783 -317 -2525 -62 -387
133 -770 363 -1057 635 -85 81 -82 62 12 -58 78 -100 253 -270 363 -354 462
-350 1107 -577 1865 -656 249 -26 624 -37 823 -25 853 50 1608 364 2334 971
230 192 576 556 709 746 20 29 39 53 42 53 3 0 270 -130 593 -290 323 -159
591 -290 595 -290 13 0 98 159 145 270 161 382 236 895 223 1520 -7 315 -28
584 -63 828 l-6 42 -742 0 -741 0 4 -82z"/>
<path d="M3854 6465 c3 -11 12 -47 20 -81 47 -185 161 -472 276 -699 600
-1174 1664 -1913 3045 -2114 827 -120 1630 -47 2351 214 807 293 1542 828
2090 1520 82 104 229 314 222 319 -1 2 -200 135 -442 295 -241 161 -442 289
-447 284 -4 -4 -31 -46 -60 -93 -237 -390 -656 -810 -1079 -1081 -697 -447
-1495 -638 -2460 -590 -804 41 -1376 169 -1915 430 -352 171 -613 357 -890
635 -248 250 -433 499 -669 901 -26 44 -45 71 -42 60z"/>
</g>
</svg>
